<?xml version="1.0" standalone="no"?>
<!DOCTYPE svg PUBLIC "-//W3C//DTD SVG 20010904//EN"
 "http://www.w3.org/TR/2001/REC-SVG-20010904/DTD/svg10.dtd">
<svg version="1.0" xmlns="http://www.w3.org/2000/svg"
 width="928.000000pt" height="928.000000pt" viewBox="0 0 928.000000 928.000000"
 preserveAspectRatio="xMidYMid meet">
<metadata>
Created by potrace 1.14, written by Peter Selinger 2001-2017
</metadata>
<g transform="translate(0.000000,928.000000) scale(0.100000,-0.100000)"
fill="#000000" stroke="none">
<path d="M4604 9262 c-16 -10 -31 -20 -34 -23 -3 -3 -30 -19 -60 -35 -30 -17
-73 -41 -95 -54 -22 -12 -60 -34 -85 -48 -25 -13 -52 -31 -61 -38 -9 -8 -19
-11 -22 -7 -4 3 -7 2 -7 -4 0 -6 -12 -16 -27 -22 -16 -6 -41 -20 -58 -31 -16
-11 -37 -23 -45 -27 -8 -4 -75 -42 -149 -85 -73 -43 -137 -78 -141 -78 -5 0
-15 -6 -22 -13 -12 -12 -39 -28 -153 -92 -22 -12 -67 -38 -100 -57 -186 -109
-524 -303 -550 -316 -16 -9 -45 -26 -62 -40 -18 -13 -33 -21 -33 -18 0 4 -20
-7 -44 -24 -25 -16 -47 -30 -49 -30 -2 0 -56 -30 -118 -66 -175 -102 -630
-365 -669 -387 -19 -10 -60 -34 -91 -53 -31 -19 -62 -34 -68 -34 -6 0 -11 -4
-11 -8 0 -5 -22 -19 -50 -32 -27 -13 -50 -27 -50 -32 0 -4 -5 -8 -10 -8 -8 0
-312 -171 -390 -219 -49 -31 -239 -138 -262 -149 -15 -6 -28 -17 -28 -22 0 -6
-3 -9 -7 -8 -8 2 -16 -2 -83 -42 -19 -11 -47 -26 -63 -33 -15 -6 -27 -15 -27
-19 0 -4 -4 -8 -9 -8 -5 0 -74 -38 -154 -85 -80 -47 -150 -85 -156 -85 -6 0
-11 -3 -11 -8 0 -4 -9 -12 -19 -17 -11 -6 -55 -30 -98 -55 -43 -24 -90 -51
-105 -58 -15 -8 -38 -24 -50 -36 l-23 -21 1 -2100 c1 -1155 2 -2103 3 -2107 1
-5 5 -8 10 -8 4 0 113 -61 242 -136 129 -75 259 -150 289 -167 30 -17 67 -37
82 -46 15 -9 59 -35 99 -59 39 -23 76 -42 80 -42 5 0 9 -4 9 -10 0 -5 5 -10
11 -10 6 0 39 -17 73 -37 33 -21 63 -38 66 -38 3 0 16 -8 30 -17 28 -18 418
-244 613 -355 71 -40 133 -73 138 -73 5 0 9 -4 9 -10 0 -5 6 -10 14 -10 8 0
16 -3 18 -7 3 -8 66 -44 115 -67 13 -6 23 -14 23 -18 0 -5 4 -8 9 -8 5 0 49
-23 98 -51 48 -29 113 -65 143 -82 30 -16 62 -36 71 -43 8 -8 18 -14 21 -14 4
0 73 -39 155 -86 167 -98 184 -108 268 -154 33 -19 62 -36 65 -39 5 -6 55 -34
125 -70 16 -9 32 -19 35 -22 3 -3 30 -19 60 -35 30 -16 57 -32 58 -36 2 -5 8
-8 13 -8 5 0 39 -18 75 -40 36 -22 67 -40 69 -40 2 0 33 -18 69 -40 36 -22 70
-40 76 -40 5 0 10 -4 10 -10 0 -5 5 -10 10 -10 6 0 88 -45 181 -100 94 -55
173 -100 176 -100 2 0 24 -13 47 -30 24 -16 46 -27 48 -24 3 2 11 -2 18 -11 7
-8 19 -15 26 -15 8 0 14 -4 14 -10 0 -5 5 -10 11 -10 6 0 49 -23 97 -51 93
-55 113 -67 207 -119 33 -19 62 -36 65 -40 3 -3 19 -12 35 -20 17 -8 47 -25
67 -38 l36 -24 179 103 c98 57 181 107 184 112 3 5 8 7 10 6 4 -3 75 36 150
83 25 15 49 28 54 28 4 0 23 11 41 25 18 14 35 25 39 25 3 0 75 41 160 90 85
50 159 90 165 90 5 0 10 4 10 9 0 5 9 12 19 16 11 3 36 17 55 30 20 13 36 23
36 20 0 -2 28 14 63 35 34 22 78 48 97 58 63 33 325 185 330 191 3 4 24 15 48
25 23 11 42 23 42 28 0 4 4 8 10 8 5 0 44 20 86 45 41 25 78 45 81 45 3 0 17
8 31 19 15 10 48 30 73 43 80 45 94 53 99 59 3 3 20 12 38 20 17 8 32 17 32
21 0 5 5 8 10 8 6 0 27 10 48 23 20 13 62 37 92 54 30 17 111 63 180 103 69
40 143 82 165 94 22 11 42 24 45 27 3 3 34 22 70 41 36 20 90 51 120 68 30 18
80 47 110 63 30 17 57 33 60 37 3 3 21 14 40 23 19 10 53 29 75 42 22 14 92
54 155 90 63 37 122 70 130 75 70 44 382 220 389 220 5 0 11 3 13 8 4 9 57 41
81 49 9 3 17 9 17 14 0 5 9 9 20 9 11 0 20 4 20 8 0 5 12 15 28 22 66 34 187
105 190 112 2 4 7 8 12 8 10 0 149 79 170 96 13 11 15 258 15 2113 -1 1824 -3
2103 -15 2114 -13 12 -226 136 -350 205 -25 13 -52 30 -60 36 -8 7 -26 17 -40
24 -14 7 -32 16 -40 21 -50 31 -174 103 -225 131 -33 18 -68 40 -77 48 -10 8
-18 11 -18 7 0 -4 -8 -1 -17 7 -27 22 -160 98 -172 98 -6 0 -11 5 -11 10 0 6
-6 10 -13 10 -7 0 -19 6 -26 13 -6 6 -15 12 -19 12 -4 0 -18 8 -32 16 -14 9
-88 52 -165 97 -77 44 -156 90 -175 101 -19 11 -46 26 -60 33 -14 6 -35 21
-47 32 -13 11 -23 16 -23 12 0 -4 -12 1 -27 12 -16 10 -48 30 -73 44 -25 14
-117 67 -205 118 -88 51 -176 102 -195 112 -19 11 -39 24 -45 28 -5 4 -35 21
-65 37 -30 17 -95 54 -145 83 -170 99 -183 106 -280 160 -33 19 -80 47 -105
64 -25 17 -46 29 -48 28 -1 -1 -12 4 -25 11 -22 14 -323 188 -387 225 -19 11
-75 43 -123 71 -49 28 -91 51 -93 51 -3 0 -10 5 -17 10 -7 6 -52 34 -102 62
-202 115 -334 191 -372 214 -13 8 -26 15 -30 15 -5 1 -19 9 -33 19 -14 10 -41
26 -60 37 -19 11 -62 35 -95 54 -33 18 -61 37 -63 41 -2 4 -8 8 -13 8 -4 0
-43 21 -86 46 -106 63 -114 65 -149 46z m116 -871 c25 -13 52 -30 61 -37 8 -8
19 -14 23 -14 4 0 72 -38 151 -85 79 -47 148 -85 154 -85 6 0 11 -4 11 -9 0
-5 8 -11 18 -14 9 -4 37 -18 62 -33 181 -106 283 -164 291 -164 5 0 9 -4 9
-10 0 -5 6 -10 14 -10 7 0 19 -7 26 -15 7 -8 16 -12 21 -9 5 3 9 2 9 -3 0 -4
13 -14 30 -21 16 -7 45 -24 65 -37 19 -14 35 -22 35 -20 0 2 16 -7 36 -20 19
-13 44 -27 55 -30 10 -4 19 -11 19 -16 0 -5 4 -9 9 -9 14 0 155 -81 159 -91 2
-5 10 -9 17 -9 7 0 42 -17 76 -39 130 -78 521 -301 529 -301 4 0 10 -4 12 -8
3 -8 96 -62 181 -106 33 -18 37 -24 37 -60 1 -23 1 -213 1 -423 0 -211 2 -383
4 -383 3 0 23 11 45 25 22 14 44 25 50 25 5 0 10 3 10 8 0 4 27 20 60 37 33
16 60 33 60 37 0 4 5 8 11 8 6 0 56 27 112 59 56 33 106 60 111 60 5 -1 12 3
15 8 8 12 199 123 212 123 5 0 9 4 9 9 0 5 7 11 15 15 15 6 34 -3 160 -77 39
-23 73 -40 78 -39 4 1 7 -2 7 -7 0 -5 15 -14 33 -22 17 -7 34 -16 37 -20 5 -6
24 -18 183 -106 37 -20 67 -41 67 -45 0 -4 9 -8 19 -8 11 0 22 -4 26 -10 3 -5
36 -26 73 -46 l67 -37 -1 -1678 c-1 -923 -4 -1685 -7 -1692 -3 -8 -23 -23 -45
-35 -57 -30 -85 -45 -102 -58 -8 -6 -40 -25 -70 -41 -30 -17 -90 -51 -133 -76
-43 -26 -83 -47 -88 -47 -5 0 -9 -4 -9 -10 0 -5 -9 -10 -19 -10 -11 0 -21 -4
-23 -9 -1 -4 -34 -25 -73 -46 -38 -21 -72 -41 -75 -44 -3 -3 -23 -16 -46 -28
l-41 -22 -56 34 c-30 18 -58 31 -61 28 -3 -4 -6 -1 -6 5 0 7 -7 12 -15 12 -8
0 -15 4 -15 10 0 5 -3 9 -7 8 -5 -1 -19 5 -33 13 -62 39 -182 108 -210 120
-16 8 -30 16 -30 20 0 3 -16 11 -35 19 -19 8 -35 17 -35 20 0 4 -22 18 -50 31
-27 13 -50 27 -50 31 0 5 -5 8 -11 8 -7 0 -33 13 -59 29 -27 16 -51 27 -54 23
-4 -3 -6 -190 -6 -415 1 -327 -1 -412 -12 -422 -7 -7 -85 -54 -173 -104 -88
-51 -167 -96 -175 -101 -17 -10 -350 -202 -414 -238 -23 -13 -62 -37 -89 -53
-26 -16 -49 -29 -51 -29 -2 0 -34 -18 -70 -40 -36 -22 -68 -40 -72 -40 -3 0
-18 -8 -32 -19 -15 -10 -47 -29 -72 -43 -25 -14 -115 -66 -200 -115 -85 -50
-171 -99 -190 -109 -19 -10 -37 -22 -40 -25 -3 -3 -20 -12 -37 -20 -18 -8 -33
-17 -33 -21 0 -5 -4 -8 -9 -8 -12 0 -205 -113 -209 -122 -2 -4 -9 -8 -16 -8
-6 0 -45 -20 -85 -45 -40 -25 -79 -45 -86 -45 -7 0 -15 -4 -17 -8 -1 -5 -28
-23 -59 -40 -49 -28 -58 -30 -69 -17 -7 8 -17 15 -22 15 -6 0 -29 12 -52 28
-22 15 -54 34 -71 42 -16 8 -49 27 -71 42 -23 15 -44 24 -48 21 -3 -4 -6 -1
-6 5 0 7 -4 12 -9 12 -5 0 -55 27 -110 60 -56 33 -104 60 -108 60 -3 0 -14 6
-22 14 -9 7 -41 27 -71 43 -30 17 -111 62 -178 102 -68 39 -126 71 -128 71 -3
0 -10 5 -17 10 -15 13 -285 170 -292 170 -2 0 -28 15 -57 33 -29 19 -60 37
-68 41 -8 4 -24 12 -35 19 -23 14 -163 95 -215 125 -177 100 -309 177 -330
190 -14 9 -28 15 -32 14 -5 -1 -8 3 -8 8 0 6 -5 10 -10 10 -6 0 -36 16 -66 35
-30 19 -57 35 -59 35 -3 0 -23 11 -45 25 l-40 25 0 421 0 420 -78 -42 c-42
-24 -78 -46 -80 -51 -2 -4 -7 -8 -12 -8 -4 0 -52 -25 -106 -56 -55 -32 -135
-77 -179 -102 -44 -25 -83 -50 -87 -56 -4 -6 -8 -8 -8 -4 0 4 -24 -7 -52 -26
-29 -18 -63 -36 -75 -40 -13 -4 -23 -11 -23 -16 0 -20 -34 -17 -73 6 -23 14
-50 27 -59 31 -10 3 -18 9 -18 14 0 5 -5 9 -10 9 -6 0 -65 32 -133 71 -176
104 -198 116 -237 136 -19 10 -39 22 -45 26 -5 5 -50 32 -100 60 l-90 52 1
1681 c1 925 4 1687 8 1692 4 6 19 17 34 25 41 21 103 56 137 77 17 10 46 27
65 38 81 45 116 65 125 72 6 4 42 25 80 45 39 21 72 41 75 44 3 3 19 13 35 21
17 8 32 18 35 21 3 3 19 13 35 21 17 9 47 25 68 36 l38 20 72 -41 c40 -23 74
-44 77 -47 3 -3 19 -12 35 -20 17 -8 32 -17 35 -20 6 -6 86 -50 117 -65 13 -5
23 -13 23 -17 0 -5 5 -8 10 -8 6 0 40 -18 76 -40 36 -22 67 -40 69 -40 2 0 49
-27 105 -60 56 -33 104 -60 106 -60 2 0 4 191 4 425 0 301 3 425 11 425 6 0
23 8 37 19 15 10 48 30 74 44 25 14 104 59 175 100 71 41 140 80 153 88 14 8
28 19 32 24 4 6 8 6 8 1 0 -5 8 -2 18 6 9 8 37 26 62 40 73 40 330 189 428
247 29 17 57 31 62 31 6 0 10 5 10 10 0 6 5 10 11 10 6 0 45 20 86 45 40 25
75 45 78 45 8 0 130 75 133 82 2 5 8 8 13 8 9 0 155 82 294 165 39 23 77 45
85 49 8 4 24 12 35 19 11 7 59 34 105 61 47 27 95 55 107 63 13 7 24 12 25 11
2 -2 19 8 38 22 71 51 114 69 130 56 8 -6 35 -22 60 -35z"/>
<path d="M4480 7499 c-85 -49 -163 -93 -172 -96 -10 -3 -18 -9 -18 -14 0 -5
-4 -9 -9 -9 -6 0 -60 -29 -122 -65 -61 -36 -113 -65 -114 -65 -1 0 -45 -25
-96 -56 -52 -31 -114 -68 -139 -82 -25 -14 -74 -42 -110 -62 -36 -21 -69 -38
-74 -38 -5 0 -12 -5 -15 -10 -3 -5 -28 -21 -56 -36 -27 -15 -88 -49 -134 -76
-46 -28 -88 -50 -92 -50 -5 0 -9 -3 -9 -8 0 -4 -15 -13 -32 -21 -18 -8 -35
-17 -38 -20 -3 -3 -18 -14 -35 -23 l-30 -17 -5 -353 c-3 -194 -4 -384 -2 -423
l3 -70 137 -79 c266 -155 377 -219 407 -236 140 -80 440 -254 467 -269 18 -11
56 -32 83 -47 28 -15 69 -40 92 -55 23 -16 44 -29 48 -29 3 0 55 -28 114 -63
93 -56 110 -62 131 -53 14 6 27 13 30 16 5 5 21 14 99 58 25 13 58 34 74 44
15 11 27 16 27 11 0 -4 4 -3 8 2 9 13 290 175 303 175 5 0 9 3 9 8 0 4 28 22
63 40 34 18 76 42 92 52 36 23 102 59 132 74 13 6 23 14 23 19 0 4 9 7 19 7
11 0 21 4 23 8 2 5 45 33 97 63 52 30 106 61 120 69 14 8 61 35 103 58 43 24
80 47 83 53 4 5 10 7 15 4 4 -3 13 2 20 10 7 8 19 15 26 15 8 0 14 5 14 10 0
6 6 10 13 10 7 0 21 6 31 13 16 12 17 43 16 431 0 423 -2 446 -36 446 -8 0
-14 5 -14 11 0 5 -4 8 -9 4 -5 -3 -12 -1 -15 4 -3 5 -52 35 -108 66 -57 32
-111 65 -120 73 -10 8 -18 12 -18 9 0 -3 -28 12 -62 33 -35 21 -90 53 -123 71
-33 17 -62 35 -65 38 -3 4 -16 12 -30 18 -14 7 -46 25 -72 40 -52 31 -233 136
-289 168 -142 80 -365 210 -369 214 -3 3 -29 17 -57 31 -29 14 -53 28 -53 33
0 17 -34 2 -180 -84z m209 -777 c25 -15 55 -33 66 -40 11 -7 29 -17 40 -22 11
-6 41 -23 66 -38 25 -15 148 -85 272 -157 125 -71 227 -133 227 -137 0 -6
-269 -168 -294 -177 -6 -2 -19 -10 -28 -19 -10 -8 -18 -12 -18 -7 0 4 -15 -3
-32 -17 -18 -13 -44 -29 -58 -36 -14 -6 -32 -16 -40 -22 -23 -15 -117 -69
-189 -108 l-63 -34 -42 22 c-22 13 -49 30 -58 38 -10 8 -18 11 -18 7 0 -4 -8
-1 -17 7 -23 19 -125 77 -137 76 -5 0 -12 4 -15 9 -3 5 -33 25 -66 44 -33 19
-67 39 -76 44 -9 6 -38 22 -65 38 -27 15 -62 35 -79 45 -16 9 -56 32 -87 50
-32 19 -58 37 -58 40 0 6 44 35 62 41 4 1 54 29 110 63 57 34 123 72 148 86
25 14 78 45 118 69 41 24 76 43 79 43 2 0 25 14 51 32 26 18 47 31 47 28 0 -3
28 12 80 46 26 17 22 18 74 -14z"/>
<path d="M1719 5883 c-4 -95 -1 -2495 4 -2499 4 -4 12 -2 19 3 7 6 33 22 58
36 128 71 145 82 148 89 2 4 8 8 13 8 6 0 48 23 95 50 47 28 87 50 91 50 4 0
14 6 22 14 9 7 41 27 71 43 95 53 185 104 198 115 9 8 12 186 10 851 l-3 840
-63 39 c-34 21 -84 50 -110 64 -56 30 -85 47 -92 54 -3 3 -21 13 -40 23 -19 9
-48 26 -65 36 -16 11 -46 28 -65 38 -81 44 -136 76 -151 89 -8 8 -19 14 -24
14 -4 0 -30 14 -57 30 -57 35 -58 35 -59 13z"/>
<path d="M7481 5859 c-34 -21 -65 -39 -67 -39 -3 0 -30 -16 -60 -35 -30 -19
-56 -35 -58 -35 -3 0 -40 -21 -83 -46 -43 -26 -98 -58 -123 -72 -68 -37 -92
-51 -125 -72 -16 -11 -41 -24 -54 -30 -13 -6 -36 -20 -52 -31 l-28 -20 0 -840
0 -839 37 -23 c20 -13 57 -35 82 -48 25 -13 47 -27 48 -31 2 -5 8 -8 13 -8 5
0 57 -28 116 -63 199 -117 368 -214 401 -231 l32 -17 1 28 c1 36 1 2464 0
2481 -1 18 -9 15 -80 -29z"/>
<path d="M3178 4953 c-2 -60 -2 -250 0 -425 l3 -316 42 -21 c23 -12 49 -25 57
-31 53 -34 363 -210 371 -210 5 0 9 -4 9 -10 0 -5 4 -10 10 -10 8 0 138 -72
180 -100 8 -6 22 -13 30 -17 8 -4 75 -42 149 -85 73 -43 137 -78 142 -78 5 0
9 -4 9 -9 0 -5 12 -14 28 -20 15 -6 34 -15 42 -21 8 -5 56 -33 105 -61 50 -28
131 -76 181 -105 51 -30 96 -54 102 -54 6 0 69 34 141 75 72 41 136 75 141 75
6 0 10 3 10 8 0 4 21 18 48 32 26 14 87 49 135 77 48 29 92 53 97 53 6 0 10 5
10 10 0 6 5 10 10 10 6 0 22 8 37 17 14 10 33 18 41 19 8 2 18 7 21 12 6 9 29
23 121 74 19 11 49 27 65 37 17 10 46 27 65 38 19 11 112 64 205 118 94 54
203 117 242 139 l73 41 0 230 c1 379 0 608 -2 611 -2 1 -91 -49 -198 -112
-107 -62 -201 -113 -207 -113 -7 -1 -13 -5 -13 -11 0 -5 -4 -10 -9 -10 -7 0
-66 -32 -111 -60 -40 -26 -222 -130 -227 -130 -2 0 -11 -7 -20 -15 -8 -8 -19
-13 -24 -10 -5 4 -9 2 -9 -3 0 -4 -21 -19 -47 -32 -27 -12 -55 -28 -63 -35 -8
-7 -40 -25 -70 -41 -30 -16 -56 -32 -58 -36 -2 -5 -10 -8 -18 -8 -8 0 -14 -4
-14 -10 0 -5 -5 -10 -10 -10 -14 0 -224 -121 -228 -132 -2 -4 -12 -8 -22 -8
-10 0 -21 -4 -24 -9 -3 -5 -24 -18 -46 -30 l-40 -21 -42 23 c-24 13 -54 30
-68 39 -36 23 -111 66 -140 80 -14 7 -27 15 -30 18 -3 3 -18 12 -35 20 -16 8
-32 17 -35 20 -3 3 -16 11 -29 18 -26 15 -73 42 -123 70 -18 11 -60 34 -93 52
-33 19 -62 37 -65 40 -3 3 -16 11 -30 18 -14 7 -47 26 -75 42 -27 16 -59 34
-70 40 -11 5 -27 14 -35 20 -37 24 -151 90 -155 90 -3 0 -34 18 -70 40 -36 22
-70 40 -75 40 -6 0 -10 5 -10 10 0 6 -4 10 -10 10 -5 0 -47 22 -92 48 -46 27
-104 61 -130 75 l-47 27 -3 -107z"/>
<path d="M3180 3347 c-1 -23 0 -621 0 -744 l0 -73 53 -29 c28 -16 57 -33 62
-38 12 -9 89 -52 122 -68 13 -5 23 -13 23 -17 0 -5 5 -8 11 -8 12 0 145 -76
170 -97 9 -7 19 -10 22 -6 4 3 7 1 7 -5 0 -7 4 -12 9 -12 4 0 60 -30 122 -66
134 -78 169 -98 229 -132 25 -14 56 -32 70 -42 14 -9 52 -31 85 -50 33 -18 74
-41 91 -51 17 -9 42 -23 55 -31 13 -7 26 -15 29 -18 9 -9 84 -51 113 -63 15
-6 27 -15 27 -19 0 -4 4 -8 9 -8 5 0 41 -18 80 -41 l72 -41 147 85 c81 46 163
94 182 106 19 11 42 24 50 28 8 4 59 33 113 65 54 32 100 58 102 58 2 0 51 29
109 64 58 36 106 62 106 60 0 -3 20 9 44 26 25 16 47 30 49 30 5 0 188 105
227 130 8 5 53 30 100 56 47 26 87 50 90 53 3 4 25 17 50 29 25 13 55 31 68
40 l23 18 -1 413 c0 228 -2 416 -4 418 -2 2 -39 -17 -82 -43 -44 -26 -99 -58
-124 -72 -25 -13 -70 -39 -100 -57 -30 -18 -73 -43 -95 -55 -95 -53 -200 -114
-205 -120 -3 -3 -23 -14 -45 -25 -22 -11 -42 -23 -45 -26 -3 -3 -17 -12 -32
-20 -15 -8 -62 -34 -105 -59 -43 -24 -81 -43 -85 -42 -5 1 -8 -1 -8 -6 0 -4
-17 -16 -37 -27 -21 -11 -60 -34 -88 -51 -27 -17 -60 -34 -72 -38 -13 -4 -23
-11 -23 -16 0 -4 -12 -13 -27 -19 -16 -7 -37 -17 -48 -24 -87 -53 -186 -107
-195 -107 -5 0 -10 -4 -10 -9 0 -23 -36 -19 -80 9 -26 16 -50 30 -53 30 -3 0
-26 14 -50 30 -25 17 -50 30 -56 30 -6 0 -11 5 -11 12 0 6 -3 8 -7 5 -3 -4
-21 5 -40 19 -18 14 -33 22 -33 18 0 -4 -8 0 -17 8 -10 8 -38 26 -63 39 -25
13 -48 29 -52 34 -4 6 -8 6 -8 1 0 -5 -8 -2 -17 6 -10 8 -67 43 -128 78 -164
93 -157 90 -340 195 -93 54 -187 109 -207 121 -21 13 -40 24 -42 24 -4 0 -82
45 -151 87 -11 7 -27 15 -35 19 -8 4 -22 12 -30 19 -8 6 -27 16 -42 23 -26 11
-28 10 -28 -11z"/>
</g>
</svg>
