<svg version="1.1" viewBox="440 780 6120 7100" stroke="rgb(251,202,4)" stroke-width="28" stroke-linejoin="round" id="svg30" width="6120" height="7100" xmlns="http://www.w3.org/2000/svg">
  <path fill="rgb(251,202,4)"  fill-opacity="0.2" d="m -322,2394 v -785 l 764,-392 764,392 v 785 l -764,392 z"/>
  <path fill="rgb(251,202,4)"  fill-opacity="0.1" d="m -322,4750 v -785 l 764,-392 764,392 v 785 l -764,392 z"/>
  <path fill="rgb(251,202,4)"  fill-opacity="0.0" d="m -322,7107 v -785 l 764,-392 764,392 v 785 l -764,391 z"/>

  <path fill="rgb(251,202,4)"  fill-opacity="0.3" d="M 1969,430 V 1216 L 1205,1608 441,1216 V 430 L 1205,38 Z"/>
  <path fill="rgb(251,202,4)"  fill-opacity="0.2" d="m 1969,2787 v 785 l -764,392 -764,-392 v -785 l 764,-392 z"/>
  <path fill="rgb(251,202,4)"  fill-opacity="0.1" d="m 1969,5143 v 785 l -764,392 -764,-392 v -785 l 764,-392 z"/>
  <path fill="rgb(251,202,4)"  fill-opacity="0.3" d="m 1959,7504 v 785 L 1195,8682 431,8289 V 7504 l 764,-392 z"/>

  <path fill="rgb(251,202,4)"  fill-opacity="0.2" d="m 1205,7107 v -785 l 764,-392 763,392 v 785 l -763,391 z"/>
  <path fill="rgb(251,202,4)"  fill-opacity="0.1" d="m 1205,4750 v -785 l 764,-392 763,392 v 785 l -763,392 z"/>
  <path fill="rgb(251,202,4)"  fill-opacity="0.0" d="m 1205,2394 v -785 l 764,-392 763,392 v 785 l -763,392 z"/>

  <path fill="rgb(251,202,4)"  fill-opacity="0.0" d="m 3497,430 v 785 l -764,392 -763,-392 V 430 L 2732,38 Z"/>
  <path fill="rgb(251,202,4)"  fill-opacity="0.1" d="m 3497,2787 v 785 l -764,392 -763,-392 v -785 l 763,-392 z"/>
  <path fill="rgb(251,202,4)"  fill-opacity="0.2" d="m 3497,5143 v 785 l -764,392 -763,-392 v -785 l 763,-392 z"/>
  <path fill="rgb(251,202,4)"  fill-opacity="0.0" d="m 3486,7504 v 785 l -764,392 -763,-392 V 7504 l 763,-392 z"/>

  <path fill="rgb(251,202,4)"  fill-opacity="0.1" d="m 2732,7107 v -785 l 764,-392 764,392 v 785 l -764,391 z"/>
  <path fill="rgb(251,202,4)"  fill-opacity="0.2" d="m 2732,4750 v -785 l 764,-392 764,392 v 785 l -764,392 z"/>
  <path fill="rgb(251,202,4)"  fill-opacity="0.3" d="m 2732,2394 v -785 l 764,-392 764,392 v 785 l -764,392 z"/>

  <path fill="rgb(251,202,4)"  fill-opacity="0.1" d="m 5025,430 v 785 l -764,392 -764,-392 V 430 L 4261,38 Z"/>
  <path fill="rgb(251,202,4)"  fill-opacity="0.0" d="m 5025,2787 v 785 l -764,392 -764,-392 v -785 l 764,-392 z"/>
  <path fill="rgb(251,202,4)"  fill-opacity="0.2" d="m 5025,5143 v 785 l -764,392 -764,-392 v -785 l 764,-392 z"/>
  <path fill="rgb(251,202,4)"  fill-opacity="0.1" d="m 5015,7504 v 785 l -764,392 -764,-392 V 7504 l 764,-392 z"/>

  <path fill="rgb(251,202,4)"  fill-opacity="0.3" d="m 4261,7107 v -785 l 764,-392 763,392 v 785 l -763,391 z"/>
  <path fill="rgb(251,202,4)"  fill-opacity="0.2" d="m 4261,4750 v -785 l 764,-392 763,392 v 785 l -763,392 z"/>
  <path fill="rgb(251,202,4)"  fill-opacity="0.1" d="m 4261,2394 v -785 l 764,-392 763,392 v 785 l -763,392 z"/>
  
  <path fill="rgb(251,202,4)"  fill-opacity="0.3" d="M 6552,430 V 1216 L 5788,1608 5025,1216 V 430 L 5788,38 Z"/>
  <path fill="rgb(251,202,4)"  fill-opacity="0.2" d="m 6542,7504 v 785 l -764,392 -763,-392 V 7504 l 763,-392 z"/>
  <path fill="rgb(251,202,4)" fill-opacity="0.1" d="m 6552,5143 v 785 l -764,392 -763,-392 v -785 l 763,-392 z"/>
  <path fill="rgb(251,202,4)"  fill-opacity="0.3" d="m 6552,2787 v 785 l -764,392 -763,-392 v -785 l 763,-392 z"/>
  
  <path fill="rgb(251,202,4)" fill-opacity="0.2" d="m 5788,2394 v -785 l 764,-392 764,392 v 785 l -764,392 z"/>  
  <path fill="rgb(251,202,4)" fill-opacity="0.1" d="m 5788,4750 v -785 l 764,-392 764,392 v 785 l -764,392 z"/>
  <path fill="rgb(251,202,4)" fill-opacity="0.0" d="m 5788,7107 v -785 l 764,-392 764,392 v 785 l -764,391 z"/>
</svg>
